HIERARCHY
ROOT hip
{
	OFFSET 0.000000 0.000000 0.000000 
	CHANNELS 6 Xposition Yposition Zposition Xrotation Zrotation Yrotation
	JOINT abdomen
	{
		OFFSET 0.000000 3.402643 0.000000 
		CHANNELS 3 Xrotation Zrotation Yrotation
		JOINT chest
		{
			OFFSET 0.000000 8.438565 -0.680529 
			CHANNELS 3 Xrotation Zrotation Yrotation
			JOINT neck
			{
				OFFSET 0.000000 10.207942 -0.272212 
				CHANNELS 3 Xrotation Zrotation Yrotation
				JOINT head
				{
					OFFSET 0.000000 3.130431 0.000000 
					CHANNELS 3 Xrotation Zrotation Yrotation
					End Site
					{
						OFFSET 0.000000 3.130435 0.000000 
					}
				}
			}
			JOINT lCollar
			{
				OFFSET 3.470700 6.669187 -0.816635 
				CHANNELS 3 Yrotation Zrotation Xrotation
				JOINT lShldr
				{
					OFFSET 3.198488 0.000000 0.000000 
					CHANNELS 3 Zrotation Yrotation Xrotation
					JOINT lForeArm
					{
						OFFSET 10.139888 0.000000 0.000000 
						CHANNELS 3 Yrotation Zrotation Xrotation
						JOINT lHand
						{
							OFFSET 8.370511 0.000000 0.000000 
							CHANNELS 3 Zrotation Yrotation Xrotation
							End Site
							{
								OFFSET 4.083176 0.000000 0.000000 
							}
						}
					}
				}
			}
			JOINT rCollar
			{
				OFFSET -3.470700 6.669187 -0.816635 
				CHANNELS 3 Yrotation Zrotation Xrotation
				JOINT rShldr
				{
					OFFSET -3.198488 0.000000 0.000000 
					CHANNELS 3 Zrotation Yrotation Xrotation
					JOINT rForeArm
					{
						OFFSET -10.139888 0.000000 0.000000 
						CHANNELS 3 Yrotation Zrotation Xrotation
						JOINT rHand
						{
							OFFSET -8.370511 0.000000 0.000000 
							CHANNELS 3 Zrotation Yrotation Xrotation
							End Site
							{
								OFFSET -4.083176 0.000000 0.000000 
							}
						}
					}
				}
			}
		}
	}
	JOINT lThigh
	{
		OFFSET 5.308129 -1.633274 1.361059 
		CHANNELS 3 Xrotation Zrotation Yrotation
		JOINT lShin
		{
			OFFSET -2.041588 -20.007561 0.000000 
			CHANNELS 3 Xrotation Zrotation Yrotation
			JOINT lFoot
			{
				OFFSET 0.000000 -19.190928 -1.224953 
				CHANNELS 3 Xrotation Yrotation Zrotation
				End Site
				{
					OFFSET 0.000000 -2.449906 4.627600 
				}
			}
		}
	}
	JOINT rThigh
	{
		OFFSET -5.308129 -1.633274 1.361059 
		CHANNELS 3 Xrotation Zrotation Yrotation
		JOINT rShin
		{
			OFFSET 2.041588 -20.007561 0.000000 
			CHANNELS 3 Xrotation Zrotation Yrotation
			JOINT rFoot
			{
				OFFSET 0.000000 -19.190928 -1.224953 
				CHANNELS 3 Xrotation Yrotation Zrotation
				End Site
				{
					OFFSET 0.000000 -2.449906 4.627600 
				}
			}
		}
	}
}
MOTION
Frames: 8
Frame Time: 0.033333
12.020266 51.667000 74.442192 0.166016 6.679688 9.882814 29.120789 -16.507778 -1.982917 -17.275391 13.544923 10.214845 51.553619 8.070152 2.616707 -71.269531 -5.595702 -12.714846 2.000000 -2.000000 0.000000 -94.628906 0.488281 -22.968697 -88.736290 0.046784 -2.942865 -19.336843 25.760468 -8.726049 -2.000000 2.000000 0.000000 97.099609 -31.220705 -13.642580 86.952995 0.175598 -3.066887 -0.497227 -36.843136 -16.504694 -7.559228 -2.802102 3.164344 7.029047 -6.308016 -1.056427 7.067060 10.948581 -2.036573 7.740058 -15.397512 -26.740349 37.193062 3.969330 3.381504 34.545937 -19.598139 -9.286361 
12.459645 52.013538 76.563065 0.166016 6.484375 9.882813 30.233562 -15.059927 -3.544775 -17.841799 13.222657 8.955078 51.553619 8.070152 2.616707 -71.308594 -5.917969 -8.916171 2.000000 -2.000000 0.000000 -94.316406 -0.859375 -24.316408 -89.087029 0.048478 -2.913629 -19.505274 25.490520 -8.639754 -2.000000 2.000000 0.000000 94.902344 -32.382813 -10.419922 87.831078 0.193405 -3.036522 -0.497524 -37.243534 -16.241072 -4.359095 -2.936504 4.939126 5.952373 -6.335258 -0.928210 4.921430 9.881119 -1.143094 -2.179791 -18.411901 -22.674910 47.211926 3.517857 3.872992 33.609463 -22.171932 0.131130 
12.971580 52.292282 78.738434 0.351562 6.123047 9.716623 31.132030 -13.634269 -5.020963 -18.398436 12.910156 7.707261 51.553619 8.070152 2.616707 -71.406250 -5.224609 -5.616124 2.000000 -2.000000 0.000000 -93.974609 -2.021484 -25.996092 -89.262810 0.038728 -2.913063 -19.187866 25.278690 -8.152545 -2.000000 2.000000 0.000000 95.712891 -33.291016 -9.550781 88.182930 0.018481 -3.056419 -0.953664 -37.780537 -16.235909 -0.904592 -2.660079 6.028255 4.186282 -6.354498 -0.724805 3.369169 8.648118 -1.208898 -10.370995 -19.938084 -20.314491 52.628426 3.075811 4.274095 31.111986 -23.884943 5.602741 
13.548662 52.465538 80.853172 0.703125 5.595703 9.561498 32.018223 -11.960128 -6.577386 -18.769533 12.587891 6.689453 51.553619 8.070152 2.616707 -71.601563 -3.876953 -2.744141 2.000000 -2.000000 0.000000 -93.681641 -2.841797 -26.924313 -89.613823 0.039857 -2.893572 -19.295050 24.802296 -8.200726 -2.000000 2.000000 0.000000 98.164063 -34.277344 -10.484016 88.358444 0.027666 -3.046110 -0.758635 -38.708286 -17.031185 1.705190 -2.502077 6.282731 3.345912 -6.341971 -0.626794 1.823374 8.061110 -1.445990 -14.911548 -19.694984 -20.758795 51.569538 3.163878 4.201858 25.663443 -23.786715 5.377045 
14.135468 52.503208 83.096245 1.054688 4.892563 9.590706 32.656075 -10.469758 -7.760801 -18.964844 12.246094 5.529221 51.553619 8.070152 2.616707 -71.621094 -2.548828 -0.234375 2.000000 -2.000000 0.000000 -93.730469 -2.705078 -26.826628 -89.789330 0.030673 -2.883261 -19.662811 24.546354 -8.719439 -2.000000 2.000000 0.000000 100.068359 -34.648438 -11.171874 88.533943 0.027102 -3.036364 -1.194685 -39.499329 -17.025059 4.319919 -2.271142 6.365469 2.807956 -6.342700 -0.566997 -0.598872 8.061957 -1.684380 -17.341660 -18.207041 -23.264767 46.310413 3.583482 4.011436 16.294321 -21.085514 1.642992 
14.628308 52.382675 85.458145 1.406250 4.189453 9.423829 32.931725 -9.301997 -8.731669 -18.964844 12.246094 4.826120 51.553619 8.070152 2.616707 -71.494148 -1.240234 1.738281 2.000000 -2.000000 0.000000 -93.974609 -2.011719 -25.732420 -89.789330 0.030673 -2.883261 -19.752192 24.030546 -9.139534 -2.000000 2.000000 0.000000 100.634766 -34.345703 -11.044923 88.533943 0.027102 -3.036364 -1.629506 -40.261272 -17.073990 7.044291 -1.697011 6.139020 2.664379 -6.180648 -0.084476 -3.227882 7.516825 -1.959551 -18.639793 -16.408958 -26.451107 38.586662 4.305950 3.332392 8.045623 -16.351681 -1.953099 
14.990042 52.118999 87.929764 1.757813 3.496094 9.434190 32.811157 -8.252600 -9.499261 -18.789063 12.246094 4.335785 51.553619 8.070152 2.616707 -71.279305 -0.751953 3.671875 2.000000 -2.000000 0.000000 -94.179688 -1.337891 -25.068272 -89.789330 0.030673 -2.883261 -19.590748 23.646132 -9.790995 -2.000000 2.000000 0.000000 100.556641 -34.062500 -10.468750 88.357864 0.202026 -3.016468 -2.360447 -40.467190 -16.791403 8.720193 -0.907655 7.570449 4.597258 -6.306613 -0.791274 -6.414751 7.042378 -1.273484 -19.499134 -14.075909 -28.413799 30.489042 4.793552 2.773066 3.138522 -11.637727 -3.331332 
15.185601 51.787544 90.493149 2.109375 2.617188 9.414508 32.324909 -7.383379 -9.956484 -18.222656 12.558594 3.996265 51.553619 8.070152 2.616707 -71.171875 -1.425781 5.664063 2.000000 -2.000000 0.000000 -94.345703 -0.761719 -24.707029 -89.613823 0.039857 -2.893572 -19.590317 24.036854 -10.118586 -2.000000 2.000000 0.000000 100.439453 -34.306641 -10.239879 88.358444 0.027666 -3.046110 -2.637653 -40.614147 -16.498093 10.715351 0.196463 8.692871 6.721062 -6.283193 -0.998106 -9.263075 5.759852 -1.067553 -19.589333 -10.653609 -29.409227 21.152334 5.244136 2.060394 2.800340 -9.377661 -3.851235 
